<svg xmlns="http://www.w3.org/2000/svg" width="12.662" height="12.903" viewBox="0 0 12.662 12.903">
  <g id="back-icon" transform="translate(12.662 12.903) rotate(180)">
    <g id="Layer_1" data-name="Layer 1">
      <path id="Path_50" data-name="Path 50" d="M7.165,7.178a1.065,1.065,0,0,0,0-1.554L1.879.328a1.094,1.094,0,0,0-1.563,0,1.114,1.114,0,0,0,0,1.554L4.81,6.416.316,10.95A1.114,1.114,0,0,0,0,11.722a1.143,1.143,0,0,0,.3.8,1.075,1.075,0,0,0,1.563,0Z" transform="translate(0 0.015)" fill="#e1b9b5"/>
      <path id="Path_51" data-name="Path 51" d="M.332.343a1.075,1.075,0,0,0,0,1.554L4.827,6.431.332,10.964a1.085,1.085,0,0,0-.313.8,1.114,1.114,0,0,0,.313.8,1.065,1.065,0,0,0,1.554,0l5.3-5.286a1.085,1.085,0,0,0,0-1.554l-5.3-5.3A.977.977,0,0,0,.332.343" transform="translate(5.153)" fill="#e1b9b5"/>
    </g>
  </g>
</svg>
