<svg xmlns="http://www.w3.org/2000/svg" xmlns:xlink="http://www.w3.org/1999/xlink" width="197.353" height="29.189" viewBox="0 0 197.353 29.189">
  <defs>
    <clipPath id="clip-path">
      <rect id="Rectangle_5" data-name="Rectangle 5" width="197.353" height="29.189"/>
    </clipPath>
  </defs>
  <g id="logo" transform="translate(0 0)">
    <g id="Group_3" data-name="Group 3" transform="translate(0 0)" clip-path="url(#clip-path)">
      <path id="Path_772" data-name="Path 772" d="M71.751,19.221v9.725H66.757V20.594a2.625,2.625,0,0,0-2.7-2.947c-1.888.058-3.051,1.574-3.051,3.662v7.636H55.984V20.594c0-1.832-1.017-2.947-2.671-2.947C51.4,17.7,50.2,19.221,50.2,21.308v7.636h-5V13.525h5v2.545A5.7,5.7,0,0,1,55.373,13.3a5.236,5.236,0,0,1,5.228,3.49,5.684,5.684,0,0,1,5.517-3.49c3.426,0,5.633,2.32,5.633,5.925m19.341,3.346H80.086a3.605,3.605,0,0,0,3.689,2.861,5.325,5.325,0,0,0,3.747-1.574L90.164,26.4a9.062,9.062,0,0,1-6.825,2.717c-5.11,0-8.305-3.146-8.305-7.838,0-4.778,3.311-7.924,8.16-7.924,5.516,0,8.246,3.574,7.9,9.212m-4.821-2.661a2.9,2.9,0,0,0-3.019-3.119c-1.743,0-2.934,1.259-3.253,3.119Zm24.337,9.039h-5.024V26.915a5.7,5.7,0,0,1-4.7,2.231c-4.414,0-7.318-3.2-7.318-7.979,0-4.72,2.875-7.839,7.2-7.839a5.844,5.844,0,0,1,4.821,2.231V7.723h5.024V28.946Zm-5.024-7.666c0-2.374-1.394-4-3.485-4s-3.485,1.629-3.514,4c.029,2.374,1.423,4.033,3.514,4.033s3.485-1.661,3.485-4.033M120.365,9.1a2.643,2.643,0,1,1-2.683-2.6h.041a2.536,2.536,0,0,1,2.641,2.425C120.367,8.976,120.367,9.037,120.365,9.1ZM115.2,13.529h5V28.949h-5Zm23.9,5.347V28.946h-4.908V27.173a5.766,5.766,0,0,1-4.8,2c-3.34,0-5.372-2-5.372-4.834,0-2.918,2.12-4.634,6.011-4.663h4.124v-.229c0-1.517-1.016-2.432-3.048-2.432a11.145,11.145,0,0,0-4.677,1.288l-1.423-3.261a16.71,16.71,0,0,1,7.261-1.745c4.3,0,6.8,2.087,6.828,5.579m-4.938,4.834V22.338h-3.164c-1.51,0-2.265.516-2.265,1.659,0,1.115.813,1.831,2.207,1.831a3.168,3.168,0,0,0,3.223-2.119Zm9.874-11.128c0-3.089,2.411-5.179,5.983-5.148a8.573,8.573,0,0,1,3.077.543l-.171,3.947a3.563,3.563,0,0,0-1.858-.658,1.923,1.923,0,0,0-2.057,1.777,1.828,1.828,0,0,0,0,.254v.772h3.571l-.029,3.232h-3.543V28.946h-4.967V17.3h-2.125l.03-3.232h2.09V12.582Zm15.653,16.363h-5.024V7.723h5.021V28.949Zm19.341-6.379H168.021a3.612,3.612,0,0,0,3.689,2.861,5.331,5.331,0,0,0,3.747-1.574L178.1,26.4a9.062,9.062,0,0,1-6.825,2.717c-5.11,0-8.305-3.146-8.305-7.838,0-4.778,3.311-7.924,8.161-7.924C176.646,13.354,179.376,16.929,179.028,22.567Zm-4.821-2.661a2.9,2.9,0,0,0-3.02-3.119c-1.742,0-2.933,1.259-3.252,3.119Zm17.309-6.38h5.491l-4.967,7.495,5.312,7.923h-5.779l-2.846-4.834-3.195,4.834H180.02l5.342-7.894-4.994-7.524h5.749l2.613,4.435ZM.008,7.754,4.222,11.9,22.084,7.19,17.3,24.787l4.215,4.151L29.383,0ZM11.79,25.833,0,28.945,3.159,17.332Z" transform="translate(0 0.001)" fill-rule="evenodd"/>
    </g>
  </g>
</svg>
