<svg xmlns="http://www.w3.org/2000/svg" width="234.329" height="165.137" viewBox="0 0 234.329 165.137">
  <g id="thank-you-icon" transform="translate(0 -347.064)">
    <path id="Path_138" data-name="Path 138" d="M12.761,0A12.761,12.761,0,1,1,0,12.761,12.761,12.761,0,0,1,12.761,0Z" transform="translate(106.915 486.329)" fill="#ccc"/>
    <path id="Path_107" data-name="Path 107" d="M462.926,350.326c7.139-2.144,14.729-4.38,20.391-9.477,5.059-4.555,8.475-11.51,6.379-18.341s-8.357-11.362-14.826-13.623a60.828,60.828,0,0,0-11.344-2.552c-4.171-.607-8.36-1.105-12.548-1.584q-25.433-2.909-51.057-3.554c-8.429-.212-16.857-.207-25.287-.085-7.529.109-15.458.107-22.443-3.093-5.431-2.488-10.361-7.016-11.874-12.965-1.747-6.867,1.475-13.861,6.1-18.835a49.369,49.369,0,0,1,8.222-6.857c3.187-2.2,6.485-4.246,9.854-6.155a137.22,137.22,0,0,1,20.742-9.562c3.536-1.286,7.124-2.395,10.744-3.418a91.938,91.938,0,0,0,9.076-2.907c5.71-2.276,11.141-6.131,12.593-12.451,1.376-5.99-.944-12.492-5.012-16.942-4.706-5.148-11.8-7.4-18.6-7.77-7.637-.41-15.1,1.5-22.276,3.927-7.656,2.587-15.147,5.562-22.964,7.658a154.51,154.51,0,0,1-23.635,4.393,64.114,64.114,0,0,1-11.861.567,14.343,14.343,0,0,1-9-3.573,8.9,8.9,0,0,1-2.895-7.666c.077-.528.879-.3.8.221-.519,3.539,1.886,6.8,4.85,8.469,3.426,1.93,7.594,1.933,11.408,1.712a149.206,149.206,0,0,0,24.556-3.55,197.339,197.339,0,0,0,23.221-7.168c7.256-2.628,14.675-5.192,22.427-5.761,6.726-.494,13.8.486,19.662,4a21.751,21.751,0,0,1,10.144,14.153,16.406,16.406,0,0,1-4.827,15.623c-4.528,4.174-10.736,5.959-16.522,7.6a151.375,151.375,0,0,0-21.47,7.685,134.779,134.779,0,0,0-20.2,11.354c-6.172,4.217-12.262,9.524-14.214,17.048a15.7,15.7,0,0,0,.78,10.532,19.246,19.246,0,0,0,6.176,7.329c6.192,4.556,14,5.492,21.476,5.585,8.4.1,16.8-.179,25.2-.041q25.689.422,51.272,3.127,6.411.678,12.8,1.5a115.759,115.759,0,0,1,11.451,1.857c6.7,1.556,13.226,4.547,17.392,10.231a16.178,16.178,0,0,1,1.378,17.69c-3.2,6.295-9.192,10.3-15.556,12.929a110.355,110.355,0,0,1-10.473,3.536.416.416,0,0,1-.221-.8Z" transform="translate(-267.012 160.809)" fill="#f2f2f2"/>
    <ellipse id="Ellipse_7" data-name="Ellipse 7" cx="6.658" cy="6.658" rx="6.658" ry="6.658" transform="translate(28.267 359.687)" fill="#f2f2f2"/>
    <ellipse id="Ellipse_8" data-name="Ellipse 8" cx="6.658" cy="6.658" rx="6.658" ry="6.658" transform="translate(74.457 372.309)" fill="#f2f2f2"/>
    <ellipse id="Ellipse_9" data-name="Ellipse 9" cx="6.658" cy="6.658" rx="6.658" ry="6.658" transform="translate(113.573 347.064)" fill="#f2f2f2"/>
    <ellipse id="Ellipse_10" data-name="Ellipse 10" cx="6.658" cy="6.658" rx="6.658" ry="6.658" transform="translate(137.986 375.361)" fill="#f2f2f2"/>
    <ellipse id="Ellipse_11" data-name="Ellipse 11" cx="6.658" cy="6.658" rx="6.658" ry="6.658" transform="translate(104.973 408.096)" fill="#f2f2f2"/>
    <ellipse id="Ellipse_12" data-name="Ellipse 12" cx="6.658" cy="6.658" rx="6.658" ry="6.658" transform="translate(63.083 423.909)" fill="#f2f2f2"/>
    <ellipse id="Ellipse_13" data-name="Ellipse 13" cx="6.658" cy="6.658" rx="6.658" ry="6.658" transform="translate(107.47 448.6)" fill="#f2f2f2"/>
    <ellipse id="Ellipse_14" data-name="Ellipse 14" cx="6.658" cy="6.658" rx="6.658" ry="6.658" transform="translate(155.186 462.471)" fill="#f2f2f2"/>
    <ellipse id="Ellipse_15" data-name="Ellipse 15" cx="6.658" cy="6.658" rx="6.658" ry="6.658" transform="translate(210.948 459.419)" fill="#f2f2f2"/>
    <path id="Path_108" data-name="Path 108" d="M508.9,220.37a36.929,36.929,0,0,0-36.557,36.291c0,.184,0,1.479,0,3.172A9.362,9.362,0,0,0,481.7,269.2h0a9.368,9.368,0,0,0,9.366-9.374c0-1.154,0-1.951,0-2a17.755,17.755,0,1,1,27.331,14.947l0,0s-13.324,8.578-17.386,20.345h0a26.077,26.077,0,0,0-1.074,7.426c0,1.033.061,10.076.178,17.416a9.65,9.65,0,0,0,9.651,9.494h0a9.653,9.653,0,0,0,9.652-9.713c-.041-6.722-.063-14.548-.063-15.116,0-7.225,6.97-14.424,12.7-19.119A38.508,38.508,0,0,0,545.3,262.422a24.073,24.073,0,0,0,.693-5.225A36.827,36.827,0,0,0,508.9,220.37Z" transform="translate(-390.589 145.559)" fill="#ccc"/>
    <path id="Path_109" data-name="Path 109" d="M411.662,745.91H177.993a.33.33,0,1,1,0-.661H411.661a.33.33,0,1,1,0,.661Z" transform="translate(-177.662 -233.709)" fill="#3f3d56"/>
    <ellipse id="Ellipse_16" data-name="Ellipse 16" cx="8.323" cy="8.323" rx="8.323" ry="8.323" transform="translate(166.021 406.153)" fill="#2f2e41"/>
    <path id="Path_110" data-name="Path 110" d="M559.939,547.96h-3.4l-1.618-13.119h5.02Z" transform="translate(-400.974 -39.402)" fill="#a0616a"/>
    <path id="Path_111" data-name="Path 111" d="M541.239,578.626H547.8v4.13H537.109A4.13,4.13,0,0,1,541.239,578.626Z" transform="translate(-388.105 -71.04)" fill="#2f2e41"/>
    <path id="Path_112" data-name="Path 112" d="M654.939,547.96h-3.4l-1.618-13.119h5.02Z" transform="translate(-469.62 -39.402)" fill="#a0616a"/>
    <path id="Path_113" data-name="Path 113" d="M636.239,578.626H642.8v4.13H632.109A4.13,4.13,0,0,1,636.239,578.626Z" transform="translate(-456.75 -71.04)" fill="#2f2e41"/>
    <ellipse id="Ellipse_17" data-name="Ellipse 17" cx="6.814" cy="6.814" rx="6.814" ry="6.814" transform="translate(166.265 409.22)" fill="#a0616a"/>
    <path id="Path_114" data-name="Path 114" d="M752.737,454.129l3.049-7a8.706,8.706,0,0,0-1.928-9.876,8.839,8.839,0,0,0-.852-.741,8.581,8.581,0,0,0-5.268-1.823,8.926,8.926,0,0,0-3.717.827c-.1.044-.2.091-.3.139-.191.092-.38.191-.563.294a8.788,8.788,0,0,0-4.355,6.625l-1.346,11.274c-.338.885-12.412,32.844-8.189,57.243a1.239,1.239,0,0,0,1.06,1.018l4.281.583a1.247,1.247,0,0,0,1.39-.979l7.182-34.236a.972.972,0,0,1,1.886-.064l10.148,36a1.24,1.24,0,0,0,1.2.91,1.406,1.406,0,0,0,.241-.022l5.229-1.007a1.24,1.24,0,0,0,1.007-1.334C762.122,503.388,758.039,460.463,752.737,454.129Z" transform="translate(-575.597 -9.301)" fill="#2f2e41"/>
    <path id="Path_115" data-name="Path 115" d="M706.053,414.913a2.79,2.79,0,0,0,2.939,3.108l3.809,9.153,2.881-4.271-4.058-8.037a2.8,2.8,0,0,0-5.57.047Z" transform="translate(-559.454 6.791)" fill="#a0616a"/>
    <path id="Path_116" data-name="Path 116" d="M791.969,508.758a2.79,2.79,0,0,0,2.338-3.582l8.013-5.836-4.824-1.807-6.87,5.819a2.8,2.8,0,0,0,1.343,5.406Z" transform="translate(-619.268 -54.713)" fill="#a0616a"/>
    <path id="Path_117" data-name="Path 117" d="M727.45,452.045a4.739,4.739,0,0,1-.915-.09,4.523,4.523,0,0,1-3.314-2.668l-5.336-6.506a1.249,1.249,0,0,1,.308-1.853l3.8-2.35a1.248,1.248,0,0,1,1.724.413l3.761,6.2,7.2-5.323a2.7,2.7,0,0,1,3.138,4.317l-7.189,6.557a4.509,4.509,0,0,1-3.175,1.306Z" transform="translate(-567.812 -11.978)" fill="#2f2e41"/>
    <path id="Path_118" data-name="Path 118" d="M811.209,467.129h-.029a1.25,1.25,0,0,1-.918-.436l-3.375-3.938a1.248,1.248,0,0,1,.255-1.851l6.32-4.213-5.726-6.883a2.7,2.7,0,0,1,4.13-3.38l6.959,6.8a4.584,4.584,0,0,1-1.02,7.474l-5.687,6.035a1.25,1.25,0,0,1-.909.392Z" transform="translate(-632.11 -17.277)" fill="#2f2e41"/>
    <path id="Path_119" data-name="Path 119" d="M785.49,442.838a1.285,1.285,0,0,1-.162-.01,1.238,1.238,0,0,1-1.029-.851l-2.536-7.776a.855.855,0,0,1,.442-1.033l.082-.039c.075-.035.148-.071.224-.1a9.036,9.036,0,0,1,3.774-.839,8.691,8.691,0,0,1,4.761,1.431.869.869,0,0,1,.25,1.191l-4.758,7.454A1.236,1.236,0,0,1,785.49,442.838Z" transform="translate(-614.143 -7.495)" fill="#e6e6e6"/>
    <ellipse id="Ellipse_18" data-name="Ellipse 18" cx="2.723" cy="2.723" rx="2.723" ry="2.723" transform="translate(178.182 405.314)" fill="#2f2e41"/>
    <path id="Path_120" data-name="Path 120" d="M777.324,361.365h0a7.213,7.213,0,0,0-7.213,7.213v3.052h3.753l1.8-3.052.539,3.052h11.39l-3.052-3.052a7.213,7.213,0,0,0-7.213-7.213Z" transform="translate(-605.754 43.679)" fill="#2f2e41"/>
    <path id="Path_121" data-name="Path 121" d="M834.809,357.818a4.2,4.2,0,0,1,4.572-2.884,5.824,5.824,0,0,1,3.925,3.243,31.945,31.945,0,0,1,1.745,4.974,9.008,9.008,0,0,0,2.717,4.434,4.043,4.043,0,0,0,4.88.262,5.581,5.581,0,0,1-10.4,1.992,12.074,12.074,0,0,1-1.118-4.231,9.246,9.246,0,0,0-1.349-4.145,3.428,3.428,0,0,0-3.829-1.426Z" transform="translate(-652.504 48.354)" fill="#2f2e41"/>
    <path id="Path_122" data-name="Path 122" d="M484,304.473h0a9.362,9.362,0,0,1-9.361-9.361c0-1.694,0-2.989,0-3.173a36.482,36.482,0,0,1,4.261-16.62,36.565,36.565,0,0,0-7.035,21.059c0,.184,0,1.479,0,3.172a9.362,9.362,0,0,0,9.361,9.362h0a9.369,9.369,0,0,0,9.013-6.822A9.327,9.327,0,0,1,484,304.473Z" transform="translate(-390.247 105.854)" fill="#3f3d56"/>
    <path id="Path_123" data-name="Path 123" d="M569.009,279.864a17.756,17.756,0,0,1,15.441,24.8,17.754,17.754,0,1,0-29.8-18.583,17.719,17.719,0,0,1,14.361-6.222Z" transform="translate(-450.065 105.792)" fill="#3f3d56"/>
    <path id="Path_124" data-name="Path 124" d="M583.968,491.8h0a9.651,9.651,0,0,1-9.651-9.5c-.117-7.337-.178-16.38-.178-17.414a26.084,26.084,0,0,1,1.075-7.426h0a26.373,26.373,0,0,1,1.524-3.523,30.532,30.532,0,0,0-4.3,7.962h0a26.078,26.078,0,0,0-1.075,7.426c0,1.034.061,10.076.178,17.416a9.651,9.651,0,0,0,9.651,9.494h0a9.655,9.655,0,0,0,9.266-6.947A9.616,9.616,0,0,1,583.968,491.8Z" transform="translate(-462.144 -23.211)" fill="#3f3d56"/>
    <path id="Path_125" data-name="Path 125" d="M126.539,548.415h3.4l1.618-13.119h-5.02Z" transform="translate(-91.434 -39.73)" fill="#ffb8b8"/>
    <path id="Path_126" data-name="Path 126" d="M0,0H10.689V4.13H4.13A4.13,4.13,0,0,1,0,0Z" transform="translate(45.064 511.842) rotate(179.997)" fill="#2f2e41"/>
    <path id="Path_127" data-name="Path 127" d="M82.539,548.415h3.4L87.558,535.3h-5.02Z" transform="translate(-59.64 -39.73)" fill="#ffb8b8"/>
    <path id="Path_128" data-name="Path 128" d="M0,0H10.689V4.13H4.13A4.13,4.13,0,0,1,0,0Z" transform="translate(32.858 511.842) rotate(179.997)" fill="#2f2e41"/>
    <path id="Path_129" data-name="Path 129" d="M259.064,601.862l-3.322-.175a1.3,1.3,0,0,1-1.226-1.378l3.971-43.962,18.285,4.934,1.762-.481-5.509,38.918a1.3,1.3,0,0,1-1.209,1.094l-3.581.167a1.3,1.3,0,0,1-1.368-1.331l.649-23.358a.432.432,0,0,0-.855-.1L260.4,600.831a1.289,1.289,0,0,1-1.268,1.034Z" transform="translate(-233.194 -97.212)" fill="#2f2e41"/>
    <ellipse id="Ellipse_19" data-name="Ellipse 19" cx="6.814" cy="6.814" rx="6.814" ry="6.814" transform="translate(28.902 409.538)" fill="#ffb8b8"/>
    <path id="Path_130" data-name="Path 130" d="M265.481,446.169l.749,16.165.271,5.881a1.288,1.288,0,0,0,.853,1.158l17.571,6.365a1.242,1.242,0,0,0,.444.078,1.288,1.288,0,0,0,1.294-1.328l-.72-29.064a10.245,10.245,0,0,0-8.529-9.9c-.17-.026-.343-.052-.516-.075a10.056,10.056,0,0,0-8.091,2.619,10.33,10.33,0,0,0-3.325,8.1Z" transform="translate(-241.11 -9.798)" fill="#ccc"/>
    <path id="Path_131" data-name="Path 131" d="M346.456,536.777a2.792,2.792,0,0,1-1.489-4.224l-5.958-7.923,5.142-.318,4.87,7.573a2.8,2.8,0,0,1-2.564,4.893Z" transform="translate(-294.248 -74.063)" fill="#ffb8b8"/>
    <path id="Path_132" data-name="Path 132" d="M324.832,478.83a1.288,1.288,0,0,1-.7-.7l-8.977-21.387a3.458,3.458,0,1,1,6.376-2.676l8.977,21.388a1.3,1.3,0,0,1-.694,1.7l-3.985,1.672a1.288,1.288,0,0,1-.992,0Z" transform="translate(-276.813 -21.774)" fill="#ccc"/>
    <path id="Path_133" data-name="Path 133" d="M298.109,501.241l8.622-16.509a1.353,1.353,0,0,1,1.824-.573l12.515,6.536a1.353,1.353,0,0,1,.572,1.824l-8.622,16.509a1.353,1.353,0,0,1-1.824.572l-12.515-6.536A1.353,1.353,0,0,1,298.109,501.241Z" transform="translate(-264.584 -44.939)" fill="#3f3d56"/>
    <path id="Path_134" data-name="Path 134" d="M286.585,501.446a2.792,2.792,0,0,0-4.3-1.237l-8.261-5.48L274,499.88l7.847,4.414a2.8,2.8,0,0,0,4.733-2.848Z" transform="translate(-247.278 -52.687)" fill="#ffb8b8"/>
    <path id="Path_135" data-name="Path 135" d="M255.661,465.981l-6.752-5.348a4.761,4.761,0,0,1-2.17-7.528l6.13-8.034a2.8,2.8,0,0,1,4.752,2.853l-4.85,7.934,7.128,3.381a1.3,1.3,0,0,1,.54,1.864l-2.877,4.554a1.3,1.3,0,0,1-.879.586l-.021,0A1.3,1.3,0,0,1,255.661,465.981Z" transform="translate(-226.799 -16.063)" fill="#ccc"/>
    <path id="Path_136" data-name="Path 136" d="M279.12,381.692a.592.592,0,0,1,.515-.782,1.368,1.368,0,0,1,.964.476,3.836,3.836,0,0,0,.852.732.733.733,0,0,0,.965-.174,1.342,1.342,0,0,0-.051-1.041,10.234,10.234,0,0,1-.452-2.71,4.772,4.772,0,0,1,.682-2.9,3.835,3.835,0,0,1,3.286-1.4,22.075,22.075,0,0,1,3.692.654,1.24,1.24,0,0,0,1.207-.2,1.556,1.556,0,0,0,.063-1.388,9.643,9.643,0,0,0-1.461-3.482,5.243,5.243,0,0,0-3.346-1.884,8.029,8.029,0,0,0-3.735.424,10.014,10.014,0,0,0-4.906,3.417,8.111,8.111,0,0,0-1.547,5.992,7.4,7.4,0,0,0,2.742,4.676Z" transform="translate(-248.553 39.223)" fill="#2f2e41"/>
    <path id="Path_137" data-name="Path 137" d="M572.946,683.492a12.76,12.76,0,0,1-4.736-19.832A12.76,12.76,0,1,0,585.568,682.1,12.752,12.752,0,0,1,572.946,683.492Z" transform="translate(-456.081 -174.754)" fill="#3f3d56"/>
  </g>
</svg>
