<svg xmlns="http://www.w3.org/2000/svg" width="67.292" height="74.763" viewBox="0 0 67.292 74.763">
  <g id="flower-icon-color" transform="translate(-6.247 -3.403)">
    <path id="Path_4665" data-name="Path 4665" d="M36.646,2A11.214,11.214,0,0,1,47.86,13.214q0,3.151-2.9,9.869l-2.706,5.084,6.579-7.076a20.49,20.49,0,0,1,4.747-4.5,11.095,11.095,0,0,1,15.214,4.108,11.256,11.256,0,0,1-4.075,15.319,21.517,21.517,0,0,1-6.9,2L47.86,39.382,56.832,40.6c3.738.542,6.347,1.26,7.888,2.153a11.256,11.256,0,0,1,4.075,15.319,11.095,11.095,0,0,1-15.214,4.1,20.166,20.166,0,0,1-4.747-4.5L42.253,50.6l2.706,5.084q2.893,6.723,2.9,9.869a11.214,11.214,0,0,1-22.429,0q0-3.151,2.9-9.869L31.039,50.6l-6.579,7.076a20.408,20.408,0,0,1-4.747,4.5A11.095,11.095,0,0,1,4.5,58.073,11.256,11.256,0,0,1,8.572,42.754a21.5,21.5,0,0,1,6.9-2l9.958-1.368L16.46,38.167c-3.738-.542-6.347-1.26-7.888-2.153A11.256,11.256,0,0,1,4.5,20.691a11.095,11.095,0,0,1,15.214-4.108,20.246,20.246,0,0,1,4.747,4.5l6.579,7.08q-5.607-12.852-5.607-14.953A11.214,11.214,0,0,1,36.646,2Z" transform="translate(3.248 1.403)" fill="#e1b9b5"/>
  </g>
</svg>
