<svg id="next-icon" xmlns="http://www.w3.org/2000/svg" width="12.662" height="12.903" viewBox="0 0 12.662 12.903">
  <path id="Path_50" data-name="Path 50" d="M7.162,7.182a1.065,1.065,0,0,0,0-1.554L1.876.332a1.094,1.094,0,0,0-1.563,0,1.114,1.114,0,0,0,0,1.554L4.807,6.42.313,10.954A1.114,1.114,0,0,0,0,11.726a1.143,1.143,0,0,0,.3.8,1.075,1.075,0,0,0,1.563,0Z" transform="translate(0.003 0.011)" fill="#543e3c"/>
  <path id="Path_51" data-name="Path 51" d="M5.6.332a1.075,1.075,0,0,0,0,1.554L10.1,6.419,5.6,10.953a1.085,1.085,0,0,0-.313.8,1.114,1.114,0,0,0,.313.8,1.065,1.065,0,0,0,1.554,0l5.3-5.286a1.085,1.085,0,0,0,0-1.554L7.156.42A.977.977,0,0,0,5.6.332" transform="translate(-0.118 0.011)" fill="#543e3c"/>
</svg>
